<svg xmlns="http://www.w3.org/2000/svg" width="20" height="20" viewBox="0 0 20 20" fill="none">
<rect width="20" height="20" rx="10" fill="url(#paint0_linear_17246_134795)"/>
<path d="M8.3356 10.0259C8.3356 9.10467 9.08201 8.35765 10.003 8.35765C10.924 8.35765 11.6708 9.10467 11.6708 10.0259C11.6708 10.9472 10.924 11.6942 10.003 11.6942C9.08201 11.6942 8.3356 10.9472 8.3356 10.0259ZM7.43402 10.0259C7.43402 11.4452 8.58415 12.5957 10.003 12.5957C11.4219 12.5957 12.572 11.4452 12.572 10.0259C12.572 8.60667 11.4219 7.45621 10.003 7.45621C8.58415 7.45621 7.43402 8.60667 7.43402 10.0259ZM12.0733 7.35432C12.0733 7.47309 12.1084 7.58921 12.1744 7.68799C12.2403 7.78678 12.334 7.86379 12.4437 7.90928C12.5534 7.95478 12.6741 7.96672 12.7906 7.9436C12.907 7.92047 13.014 7.86332 13.098 7.77937C13.182 7.69541 13.2392 7.58843 13.2625 7.47195C13.2857 7.35547 13.2738 7.23472 13.2284 7.12496C13.183 7.01521 13.1061 6.92139 13.0074 6.85536C12.9087 6.78934 12.7927 6.75407 12.6739 6.75402H12.6737C12.5145 6.7541 12.3619 6.81736 12.2493 6.92991C12.1368 7.04247 12.0735 7.19511 12.0733 7.35432ZM7.98179 14.0994C7.49402 14.0772 7.2289 13.9959 7.05271 13.9273C6.81913 13.8363 6.65247 13.728 6.47725 13.5529C6.30202 13.3779 6.19356 13.2114 6.10302 12.9777C6.03434 12.8016 5.95309 12.5363 5.93092 12.0484C5.90666 11.5209 5.90182 11.3624 5.90182 10.026C5.90182 8.68954 5.90706 8.53152 5.93092 8.00357C5.95313 7.51566 6.03498 7.2509 6.10302 7.07423C6.19396 6.84058 6.30226 6.67387 6.47725 6.4986C6.65223 6.32332 6.81873 6.21482 7.05271 6.12426C7.22882 6.05556 7.49402 5.97429 7.98179 5.95211C8.50915 5.92785 8.66756 5.923 10.003 5.923C11.3384 5.923 11.497 5.92825 12.0248 5.95211C12.5126 5.97433 12.7773 6.0562 12.9539 6.12426C13.1875 6.21482 13.3541 6.32356 13.5294 6.4986C13.7046 6.67363 13.8126 6.84058 13.9036 7.07423C13.9723 7.25038 14.0535 7.51566 14.0757 8.00357C14.0999 8.53152 14.1048 8.68954 14.1048 10.026C14.1048 11.3624 14.0999 11.5204 14.0757 12.0484C14.0535 12.5363 13.9718 12.8015 13.9036 12.9777C13.8126 13.2114 13.7043 13.3781 13.5294 13.5529C13.3544 13.7278 13.1875 13.8363 12.9539 13.9273C12.7778 13.996 12.5126 14.0772 12.0248 14.0994C11.4975 14.1237 11.339 14.1285 10.003 14.1285C8.66696 14.1285 8.50899 14.1237 7.98179 14.0994ZM7.94036 5.05179C7.40776 5.07605 7.04383 5.16053 6.726 5.28424C6.39684 5.41199 6.11819 5.58338 5.83974 5.86147C5.5613 6.13956 5.39039 6.41873 5.26268 6.74798C5.139 7.0661 5.05455 7.42994 5.0303 7.9627C5.00564 8.49629 5 8.66688 5 10.0259C5 11.385 5.00564 11.5556 5.0303 12.0892C5.05455 12.622 5.139 12.9858 5.26268 13.3039C5.39039 13.6329 5.56134 13.9124 5.83974 14.1904C6.11815 14.4684 6.39684 14.6395 6.726 14.7676C7.04443 14.8913 7.40776 14.9758 7.94036 15.0001C8.47408 15.0243 8.64435 15.0304 10.003 15.0304C11.3617 15.0304 11.5322 15.0247 12.0656 15.0001C12.5983 14.9758 12.962 14.8913 13.28 14.7676C13.609 14.6395 13.8878 14.4685 14.1663 14.1904C14.4447 13.9123 14.6152 13.6329 14.7433 13.3039C14.867 12.9858 14.9518 12.6219 14.9757 12.0892C15 11.5552 15.0056 11.385 15.0056 10.0259C15.0056 8.66688 15 8.49629 14.9757 7.9627C14.9514 7.4299 14.867 7.0659 14.7433 6.74798C14.6152 6.41893 14.4443 6.14 14.1663 5.86147C13.8883 5.58294 13.609 5.41199 13.2804 5.28424C12.962 5.16053 12.5982 5.07565 12.066 5.05179C11.5326 5.02753 11.3621 5.02148 10.0034 5.02148C8.64475 5.02148 8.47408 5.02713 7.94036 5.05179Z" fill="white"/>
<defs>
<linearGradient id="paint0_linear_17246_134795" x1="19.6156" y1="20" x2="-0.384399" y2="-5.38344e-07" gradientUnits="userSpaceOnUse">
<stop stop-color="#FBE18A"/>
<stop offset="0.21" stop-color="#FCBB45"/>
<stop offset="0.38" stop-color="#F75274"/>
<stop offset="0.52" stop-color="#D53692"/>
<stop offset="0.74" stop-color="#8F39CE"/>
<stop offset="1" stop-color="#5B4FE9"/>
</linearGradient>
</defs>
</svg>